# AST/ASF file generated using VICON BodyLanguage
# -----------------------------------------------
:version 1.10
:name VICON
:units
  mass 1.0
  length 0.45
  angle deg
:documentation
   .ast/.asf automatically generated from VICON data using
   VICON BodyBuilder and BodyLanguage model FoxedUp or BRILLIANT.MOD
:root
   order TX TY TZ RX RY RZ
   axis XYZ
   position 0 0 0  
   orientation 0 0 0 
:bonedata
  begin
     id 1 
     name lhipjoint
     direction 0.573633 -0.743009 0.344793 
     length 2.46257 
     axis 0 0 0  XYZ
  end
  begin
     id 2 
     name lfemur
     direction 0.34202 -0.939693 0  
     length 7.3842  
     axis 0 0 20  XYZ
    dof rx ry rz
    limits (-160.0 20.0)
           (-70.0 70.0)
           (-60.0 70.0)
  end
  begin
     id 3 
     name ltibia
     direction 0.34202 -0.939693 0   
     length 7.50407   
     axis 0 0 20   XYZ
    dof rx
    limits (-10.0 170.0)
  end
  begin
     id 4 
     name lfoot
     direction 0.110749 -0.304281 0.946123   
     length 1.95925   
     axis -90 7.62852e-016 20   XYZ
    dof rx rz
    limits (-45.0 90.0)
           (-70.0 20.0)
  end
  begin
     id 5 
     name ltoes
     direction 1.53554e-011 -4.21843e-011 1   
     length 0.978318   
     axis -90 7.62852e-016 20   XYZ
    dof rx
    limits (-90.0 20.0)
  end
  begin
     id 6 
     name rhipjoint
     direction -0.488109 -0.791693 0.367385   
     length 2.31113  
     axis 0 0 0  XYZ 
  end
  begin
     id 7 
     name rfemur
     direction -0.34202 -0.939693 0   
     length 7.40965   
     axis 0 0 -20   XYZ
    dof rx ry rz
    limits (-160.0 20.0)
           (-70.0 70.0)
           (-70.0 60.0)
  end
  begin
     id 8 
     name rtibia
     direction -0.34202 -0.939693 0   
     length 7.55548   
     axis 0 0 -20   XYZ
    dof rx
    limits (-10.0 170.0)
 end
 begin
     id 9 
     name rfoot
     direction -0.127594 -0.350561 0.927808   
     length 2.07199  
     axis -90 -7.62852e-016 -20   XYZ
    dof rx rz
    limits (-45.0 90.0)
           (-20.0 70.0)
  end
  begin
     id 10 
     name rtoes
     direction -1.53542e-011 -4.21909e-011 1   
     length 1.02667   
     axis -90 -7.62852e-016 -20   XYZ
    dof rx
    limits (-90.0 20.0)
  end
  begin
     id 11 
     name lowerback
     direction -0.0103342 0.997298 -0.0727278   
     length 2.02836   
     axis 0 0 0   XYZ
    dof rx ry rz
    limits (-20.0 45.0)
           (-30.0 30.0)
           (-30.0 30.0)
  end
  begin
     id 12 
     name upperback
     direction 0.0171146 0.999786 -0.011606   
     length 2.03179   
     axis 0 0 0   XYZ
    dof rx ry rz
    limits (-20.0 45.0)
           (-30.0 30.0)
           (-30.0 30.0)
  end
  begin
     id 13 
     name thorax
     direction 0.0216927 0.999513 0.0224343   
     length 2.03882   
     axis 0 0 0   XYZ
    dof rx ry rz
    limits (-20.0 45.0)
           (-30.0 30.0)
           (-30.0 30.0)
  end
  begin
     id 14 
     name lowerneck
     direction 0.000989287 0.993907 0.110221   
     length 1.75428   
     axis 0 0 0   XYZ
    dof rx ry rz
    limits (-20.0 45.0)
           (-30.0 30.0)
           (-30.0 30.0)
  end
  begin
     id 15 
     name upperneck
     direction -0.0172474 0.994813 -0.100253   
     length 1.77058   
     axis 0 0 0   XYZ
    dof rx ry rz
    limits (-20.0 45.0)
           (-30.0 30.0)
           (-30.0 30.0)
  end
  begin
     id 16
     name head
     direction -0.00486455 0.99894 -0.0457663  
     length 1.77427  
     axis 0 0 0   XYZ
    dof rx ry rz
    limits (-20.0 45.0)
           (-30.0 30.0)
           (-30.0 30.0)
  end
  begin
     id 17 
     name lclavicle
     direction 0.927314 0.333734 -0.169441  
     length 3.97584  
     axis 0 0 0   XYZ
    dof ry rz
    limits (-20.0 10.0)
           (0.0 20.0)
  end
  begin
     id 18 
     name lhumerus
     direction 1 -4.48965e-011 -3.25313e-028   
     length 4.76468   
     axis 180 -30 -90   XYZ
    dof rx ry rz
    limits (-60.0 90.0)
           (-90.0 90.0)
           (-90.0 90.0)
  end
  begin
     id 19
     name lradius
     direction 1 -4.48969e-011 -2.8465e-028   
     length 3.52712   
     axis -180 -30 -90   XYZ
    dof rx
    limits (-10.0 170.0)
  end
  begin
     id 20
     name lwrist
     direction 1 -4.4896e-011 -7.78665e-028   
     length 1.76356   
     axis 1.91374e-015 90 90   XYZ
    dof ry
    limits (-180.0 0.0)
 end
  begin
     id 21 
     name lhand
     direction 1 -4.48959e-011 -1.55733e-027   
     length 0.859564   
     axis 9.9371e-016 90 90   XYZ
    dof rx rz
    limits (-90.0 90.0)
           (-45.0 45.0)
  end
  begin
     id 22 
     name lfingers
     direction 1 -4.48965e-011 -3.11466e-027   
     length 0.693002   
     axis 1.98742e-015 90 90   XYZ
    dof rx
    limits (0.0 90.0)
  end
  begin
     id 23
     name lthumb
     direction 0.707107 -6.34948e-011 0.707107   
     length 0.995017   
     axis -90 45 2.85299e-015   XYZ
    dof rx rz
    limits (-45.0 45.0)
           (-45.0 45.0)
  end
  begin
     id 24 
     name rclavicle
     direction -0.899388 0.348209 -0.264294   
     length 3.68366  
     axis 0 0 0   XYZ 
    dof ry rz
    limits (-10.0 20.0)
           (-20.0 0.0)
  end
  begin
     id 25 
     name rhumerus
     direction -1 -4.48965e-011 -3.01536e-027  
     length 4.90577   
     axis 180 30 90   XYZ
    dof rx ry rz
    limits (-90.0 60.0)
           (-90.0 90.0)
           (-90.0 90.0)
  end
  begin
     id 26 
     name rradius
     direction -1 -4.48966e-011 3.93291e-027   
     length 3.42692   
     axis -180 30 90   XYZ
    dof rx
    limits (-10.0 170.0)
  end
  begin
     id 27 
     name rwrist
     direction -1 -4.48969e-011 -7.78665e-028   
     length 1.71346   
     axis 1.91374e-015 -90 -90   XYZ
    dof ry
    limits (-180.0 0.0)
  end
  begin
     id 28
     name rhand
     direction -1 -4.48967e-011 -1.55733e-027   
     length 0.740957   
     axis 9.9371e-016 -90 -90   XYZ
    dof rx rz
    limits (-90.0 90.0)
           (-45.0 45.0)
  end
  begin
     id 29
     name rfingers
     direction -1 -4.48949e-011 -3.11466e-027   
     length 0.597378   
     axis 1.98742e-015 -90 -90   XYZ
    dof rx
    limits (0.0 90.0)
  end
  begin
     id 30
     name rthumb
     direction -0.707107 -6.34931e-011 0.707107   
     length 0.857719   
     axis -90 -45 -2.85299e-015   XYZ
    dof rx rz
    limits (-45.0 45.0)
           (-45.0 45.0)
  end
:hierarchy
  begin
    root lhipjoint rhipjoint lowerback
    lhipjoint lfemur
    lfemur ltibia
    ltibia lfoot
    lfoot ltoes
    rhipjoint rfemur
    rfemur rtibia
    rtibia rfoot
    rfoot rtoes
    lowerback upperback
    upperback thorax
    thorax lowerneck lclavicle rclavicle
    lowerneck upperneck
    upperneck head
    lclavicle lhumerus
    lhumerus lradius
    lradius lwrist
    lwrist lhand lthumb
    lhand lfingers
    rclavicle rhumerus
    rhumerus rradius
    rradius rwrist
    rwrist rhand rthumb
    rhand rfingers
  end

#!OML:ASF E:\I on waltz\AllaLogoMonkeySwing\Project 1\Capture day 1\Session 1\Subject1.ASF
:FULLY-SPECIFIED
:DEGREES
227
root 1.19891 6.71293 -2.02517 -31.8019 -0.185736 0.406317
lowerback 39.1504 2.20254 -2.17462
upperback 11.7636 2.05343 1.39034
thorax -6.08491 0.908243 1.81978
lowerneck -12.1511 3.03234 1.31989
upperneck 6.78152 4.10246 -2.66909
head 4.08267 1.90687 -0.744869
rclavicle 1.18277e-014 -1.0138e-014
rhumerus 4.30317 13.9077 -78.016
rradius 84.6386
rwrist 20.8577
rhand 2.06003 -44.1322
rfingers 7.12502
rthumb 27.562 -72.1342
lclavicle 1.18277e-014 -1.0138e-014
lhumerus -1.50921 -12.3827 88.2822
lradius 88.2114
lwrist -15.6556
lhand 5.69924 -4.10007
lfingers 7.12502
lthumb 31.0367 23.2944
rfemur -84.9711 -29.1094 21.8319
rtibia 131.546
rfoot -16.957 5.93629
rtoes 30.1374
lfemur -81.2741 36.3084 -15.58
ltibia 132.399
lfoot -28.8946 -23.0305
ltoes -10.079
228
root 1.20924 6.73006 -2.03725 -31.0326 0.600472 1.80038
lowerback 38.9519 2.55697 -3.61737
upperback 11.757 1.92738 1.02734
thorax -6.03194 0.836302 2.2338
lowerneck -11.9684 2.97555 1.30883
upperneck 6.18983 4.00776 -2.53865
head 4.30223 1.87841 -0.792928
rclavicle 3.47873e-015 -9.34288e-015
rhumerus 3.43462 13.7612 -77.8323
rradius 86.4612
rwrist 21.6888
rhand 0.36039 -44.0672
rfingers 7.12502
rthumb 25.9355 -72.3179
lclavicle 3.47873e-015 -9.34288e-015
lhumerus -2.12334 -13.029 87.63
lradius 89.7699
lwrist -16.4015
lhand 6.5572 -3.27245
lfingers 7.12502
lthumb 31.8541 23.9626
rfemur -86.3099 -29.5939 20.3665
rtibia 131.543
rfoot -16.5851 6.7332
rtoes 30.4906
lfemur -81.752 34.5723 -17.8908
ltibia 132.069
lfoot -28.3745 -21.9072
ltoes -10.3505
229
root 1.21029 6.74536 -2.04425 -30.5002 0.832111 2.95602
lowerback 38.9911 3.04779 -4.85931
upperback 11.8264 2.04713 0.806954
thorax -5.97967 0.876627 2.59574
lowerneck -11.8346 2.86069 1.1852
upperneck 5.9848 3.8586 -2.41639
head 4.19094 1.81064 -0.743048
rclavicle -1.2921e-015 5.56597e-015
rhumerus 2.56729 13.2092 -77.5891
rradius 88.2581
rwrist 23.0002
rhand 0.0898528 -43.0153
rfingers 7.12502
rthumb 25.6764 -71.3037
lclavicle -1.2921e-015 5.56597e-015
lhumerus -2.76585 -13.7433 86.9323
lradius 91.2803
lwrist -16.4847
lhand 6.88878 -2.79863
lfingers 7.12502
lthumb 32.1698 24.3731
rfemur -87.2323 -29.4099 19.3594
rtibia 131.518
rfoot -16.3629 7.09482
rtoes 29.9959
lfemur -81.944 33.9556 -19.4358
ltibia 131.83
lfoot -28.2805 -21.1913
ltoes -10.6741
230
root 1.20618 6.7553 -2.04002 -30.4917 0.641095 2.81843
lowerback 39.4906 3.145 -4.71474
upperback 12.0364 2.19786 0.848323
thorax -5.91367 0.943625 2.4986
lowerneck -11.62 2.75266 1.06946
upperneck 5.7137 3.71239 -2.24709
head 4.03969 1.74782 -0.679677
rclavicle -8.64713e-015 5.1684e-015
rhumerus 1.64076 12.5268 -77.3266
rradius 90.1448
rwrist 24.1727
rhand 0.941008 -42.5872
rfingers 7.12502
rthumb 26.4914 -70.7554
lclavicle -8.64713e-015 5.1684e-015
lhumerus -3.41028 -14.5358 86.1465
lradius 92.7369
lwrist -15.8337
lhand 6.67189 -2.86731
lfingers 7.12502
lthumb 31.9633 24.346
rfemur -87.1099 -29.1169 19.5453
rtibia 131.457
rfoot -16.462 6.99054
rtoes 29.477
lfemur -81.9149 34.3743 -19.1853
ltibia 131.83
lfoot -28.5562 -21.3828
ltoes -10.6249
231
root 1.19895 6.75965 -2.02769 -31.2067 -0.393125 0.536648
lowerback 40.6028 2.5823 -2.30249
upperback 12.4395 2.42747 1.37728
thorax -5.80042 1.07185 1.71125
lowerneck -11.2795 2.66531 0.943531
upperneck 5.32174 3.59339 -2.06872
head 3.8219 1.69998 -0.611573
rclavicle -2.2413e-014 7.55382e-015
rhumerus 0.647715 12.0242 -76.9578
rradius 92.0807
rwrist 24.6298
rhand 2.22774 -43.0331
rfingers 7.12502
rthumb 27.7224 -71.0094
lclavicle -2.2413e-014 7.55382e-015
lhumerus -4.0953 -15.3815 85.2873
lradius 94.1648
lwrist -14.6371
lhand 5.59968 -3.56496
lfingers 7.12502
lthumb 30.9418 23.8476
rfemur -85.4125 -28.2559 21.8541
rtibia 131.277
rfoot -16.9168 5.92302
rtoes 29.5118
lfemur -81.6518 36.5863 -15.9504
ltibia 132.135
lfoot -29.341 -23.1128
ltoes -9.99769
232
root 1.20051 6.77998 -2.03179 -30.6983 -1.27962 -1.26034
lowerback 40.9837 2.11273 -0.354728
upperback 12.5291 2.63162 1.75382
thorax -5.78226 1.19336 1.02355
lowerneck -10.9174 2.54678 0.794651
upperneck 4.8954 3.4352 -1.87901
head 3.58886 1.63259 -0.538935
rclavicle -1.13804e-014 3.97569e-016
rhumerus -0.424654 12.0775 -76.4861
rradius 93.7712
rwrist 23.2673
rhand 1.46941 -42.9959
rfingers 7.12502
rthumb 26.997 -71.0867
lclavicle -1.13804e-014 3.97569e-016
lhumerus -4.82776 -16.3738 84.3442
lradius 95.4994
lwrist -13.1817
lhand 3.69921 -4.90516
lfingers 7.12502
lthumb 29.1285 22.8364
rfemur -85.3318 -26.924 24.1771
rtibia 130.969
rfoot -16.9663 4.83134
rtoes 29.5647
lfemur -82.8496 37.7351 -14.196
ltibia 132.264
lfoot -29.4672 -24.2461
ltoes -9.4734
233
root 1.20277 6.79424 -2.02069 -30.7276 -0.339503 0.035907
lowerback 41.607 2.45728 -1.6939
upperback 12.7923 2.49341 1.43622
thorax -5.69311 1.10901 1.42196
lowerneck -10.5287 2.43044 0.666002
upperneck 4.47399 3.27911 -1.70609
head 3.35619 1.5654 -0.475646
rclavicle -6.26172e-015 8.94531e-015
rhumerus -1.53192 12.2015 -75.9723
rradius 95.3158
rwrist 21.8641
rhand 1.25337 -43.3272
rfingers 7.12502
rthumb 26.7903 -71.4499
lclavicle -6.26172e-015 8.94531e-015
lhumerus -5.56169 -17.4462 83.3841
lradius 96.6742
lwrist -11.9126
lhand 1.41584 -6.866
lfingers 7.12502
lthumb 26.9458 21.2328
rfemur -85.4856 -28.1694 22.3357
rtibia 131.148
rfoot -17.3 5.77138
rtoes 29.3417
lfemur -82.0979 36.3618 -15.8443
ltibia 132.057
lfoot -29.422 -23.307
ltoes -9.43626
234
root 1.20394 6.81032 -2.01222 -30.3009 -0.212701 0.051953
lowerback 42.0229 2.49895 -1.73121
upperback 12.9423 2.52062 1.43724
thorax -5.64736 1.11891 1.42631
lowerneck -10.1129 2.32759 0.520843
upperneck 4.07946 3.14436 -1.53676
head 3.13052 1.50771 -0.409511
rclavicle 1.36664e-014 -4.96962e-015
rhumerus -2.64118 12.4363 -75.3487
rradius 96.8164
rwrist 20.4947
rhand 1.12345 -43.5617
rfingers 7.12502
rthumb 26.666 -71.7033
lclavicle 1.36664e-014 -4.96962e-015
lhumerus -6.31433 -18.5048 82.4118
lradius 97.7995
lwrist -11.1447
lhand -1.04138 -8.891
lfingers 7.12502
lthumb 24.5925 19.5493
rfemur -85.8695 -28.1664 22.3821
rtibia 131.145
rfoot -17.4989 5.81151
rtoes 28.9783
lfemur -82.549 36.0986 -16.1997
ltibia 132.029
lfoot -29.4105 -23.2009
ltoes -9.56897
235
root 1.20701 6.82438 -2.00127 -29.7491 -0.074567 0.235052
lowerback 42.4247 2.58986 -1.92903
upperback 13.0577 2.53814 1.3927
thorax -5.63543 1.12214 1.46779
lowerneck -9.6801 2.21373 0.319642
upperneck 3.65217 2.99893 -1.32582
head 2.89116 1.44514 -0.321173
rclavicle 1.33683e-014 3.18055e-015
rhumerus -3.74297 12.7483 -74.6838
rradius 98.29
rwrist 19.0444
rhand 0.808583 -43.3575
rfingers 7.12502
rthumb 26.3646 -71.5447
lclavicle 1.33683e-014 3.18055e-015
lhumerus -7.12636 -19.489 81.4046
lradius 99.1056
lwrist -10.7738
lhand -3.17483 -10.0429
lfingers 7.12502
lthumb 22.5462 18.6607
rfemur -86.4819 -28.1133 22.3202
rtibia 131.177
rfoot -17.5892 5.88502
rtoes 28.6043
lfemur -83.191 35.884 -16.8197
ltibia 132.024
lfoot -29.3144 -23.1244
ltoes -9.33531
236
root 1.20815 6.84982 -1.99338 -28.8706 -0.942895 -1.22897
lowerback 42.7646 2.28735 -0.433207
upperback 13.0869 2.78924 1.70635
thorax -5.67516 1.26032 0.931446
lowerneck -9.29334 2.10128 0.227117
upperneck 3.18373 2.85031 -1.2585
head 2.6544 1.37683 -0.29805
rclavicle -2.15681e-014 -7.7526e-015
rhumerus -4.86299 13.0895 -74.0788
rradius 99.702
rwrist 17.5902
rhand -0.311456 -42.8452
rfingers 7.12502
rthumb 25.292 -71.1884
lclavicle -2.15681e-014 -7.7526e-015
lhumerus -7.8847 -20.2665 80.4604
lradius 100.598
lwrist -10.4952
lhand -4.52821 -10.136
lfingers 7.12502
lthumb 21.2467 18.7195
rfemur -86.8868 -26.5343 24.4243
rtibia 130.933
rfoot -17.5882 4.79863
rtoes 28.3116
lfemur -84.8384 37.2032 -15.6678
ltibia 132.182
lfoot -29.4863 -24.1535
ltoes -9.01989
237
root 1.2074 6.8721 -1.97545 -28.4277 -0.614284 -0.886354
lowerback 43.4678 2.42431 -0.814589
upperback 13.2224 2.78624 1.63305
thorax -5.72506 1.25016 1.03938
lowerneck -8.95615 1.97613 0.108557
upperneck 2.67395 2.68495 -1.14756
head 2.41435 1.30116 -0.25646
rclavicle 1.92821e-014 -1.03368e-014
rhumerus -5.9888 13.4536 -73.4576
rradius 101.07
rwrist 16.2868
rhand -4.00941 -41.6357
rfingers 7.12502
rthumb 21.7449 -70.4343
lclavicle 1.92821e-014 -1.03368e-014
lhumerus -8.55037 -20.9314 79.5903
lradius 102.204
lwrist -9.9943
lhand -5.43632 -9.84085
lfingers 7.12502
lthumb 20.3741 19.1104
rfemur -87.3213 -26.789 24.0436
rtibia 131.008
rfoot -17.7321 4.99054
rtoes 28.3758
lfemur -85.1507 36.8801 -16.4492
ltibia 132.112
lfoot -29.6297 -23.9454
ltoes -8.73765
238
root 1.20635 6.8933 -1.95128 -28.185 0.346267 0.518451
lowerback 44.3742 2.81093 -2.24061
upperback 13.3992 2.61902 1.32193
thorax -5.7858 1.14788 1.48746
lowerneck -8.59792 1.85788 -0.0761133
upperneck 2.07504 2.52953 -0.912807
head 2.14082 1.2338 -0.164124
rclavicle 8.99501e-015 -2.38542e-015
rhumerus -6.98003 13.782 -72.8438
rradius 102.467
rwrist 14.9809
rhand -6.40126 -41.6663
rfingers 7.12502
rthumb 19.4466 -70.7139
lclavicle 8.99501e-015 -2.38542e-015
lhumerus -9.2537 -21.5217 78.7541
lradius 103.879
lwrist -9.37122
lhand -6.28348 -9.81154
lfingers 7.12502
lthumb 19.5598 19.2245
rfemur -87.8322 -28.0697 22.2647
rtibia 131.252
rfoot -17.9573 5.94449
rtoes 28.6095
lfemur -84.7037 35.6393 -18.2809
ltibia 131.929
lfoot -29.6367 -23.1641
ltoes -8.14781
239
root 1.20526 6.9119 -1.92072 -27.8018 1.3716 2.08919
lowerback 45.2418 3.23548 -3.87272
upperback 13.5323 2.3801 0.986676
thorax -5.85877 1.00799 2.03907
lowerneck -8.12659 1.78814 -0.162836
upperneck 1.34378 2.43448 -0.830422
head 1.81127 1.19335 -0.136166
rclavicle 1.60022e-014 5.76476e-015
rhumerus -7.78054 14.1379 -72.3163
rradius 103.903
rwrist 13.8831
rhand -8.00464 -41.9911
rfingers 7.12502
rthumb 17.9044 -71.187
lclavicle 1.60022e-014 5.76476e-015
lhumerus -10.1363 -21.9194 78.0289
lradius 105.535
lwrist -8.88592
lhand -7.32335 -10.1374
lfingers 7.12502
lthumb 18.5598 18.9972
rfemur -88.5292 -29.5261 20.4036
rtibia 131.533
rfoot -18.2718 7.00225
rtoes 28.703
lfemur -84.3249 34.2806 -20.4028
ltibia 131.745
lfoot -29.749 -21.9919
ltoes -8.48141
